<?xml version="1.0" standalone="no"?>
<!DOCTYPE svg PUBLIC "-//W3C//DTD SVG 20010904//EN"
 "http://www.w3.org/TR/2001/REC-SVG-20010904/DTD/svg10.dtd">
<svg version="1.0" xmlns="http://www.w3.org/2000/svg"
 width="174.000000pt" height="355.000000pt" viewBox="0 0 174.000000 355.000000"
 preserveAspectRatio="xMidYMid meet">

<g transform="translate(0.000000,355.000000) scale(0.100000,-0.100000)"
fill="#000000" stroke="none">
<path d="M1066 3524 c-96 -35 -148 -103 -245 -318 -17 -38 -29 -71 -27 -73 4
-5 14 12 47 77 22 43 24 29 4 -35 -8 -27 -11 -53 -8 -58 3 -5 -4 -21 -15 -36
-28 -38 -87 -158 -102 -206 -10 -34 -9 -47 5 -85 10 -25 17 -55 17 -67 0 -13
4 -23 10 -23 5 0 -1 -13 -14 -29 -17 -21 -32 -28 -58 -29 -29 -1 -150 -46
-150 -57 0 -1 18 2 40 7 50 13 60 5 33 -25 -26 -28 -76 -118 -69 -124 3 -3 19
20 36 50 41 74 53 82 119 83 47 1 60 -3 79 -24 14 -14 22 -32 19 -43 -3 -10 0
-20 7 -22 7 -2 11 -38 10 -108 -1 -92 0 -100 10 -66 7 21 15 35 19 31 4 -4 7
0 7 9 0 22 18 22 44 0 20 -18 20 -18 3 10 -10 15 -15 32 -12 37 10 16 52 -30
66 -73 8 -23 34 -62 58 -87 41 -41 46 -52 57 -119 7 -40 10 -80 7 -87 -6 -17
16 -182 26 -188 3 -2 4 38 3 90 -3 79 -1 95 12 100 9 3 16 14 16 23 0 12 2 13
9 3 12 -19 20 78 11 128 -5 27 -25 59 -66 107 -32 37 -51 62 -41 54 15 -12 17
-12 11 3 -3 9 -1 16 6 16 6 0 8 5 5 10 -4 6 -10 8 -15 5 -4 -3 -3 13 2 35 8
32 7 47 -6 74 -20 42 -21 67 -2 41 8 -11 12 -23 10 -27 -3 -5 0 -8 5 -8 15 0
14 4 -8 85 -12 42 -16 74 -11 79 15 15 37 -12 44 -54 5 -31 11 -40 26 -40 11
0 20 5 20 11 0 5 -6 7 -12 4 -7 -4 -6 0 3 7 12 10 14 19 8 36 -7 19 -4 24 14
31 27 11 46 -4 29 -21 -18 -18 -16 -69 3 -62 12 5 15 -4 15 -45 0 -49 1 -52
30 -57 32 -7 32 -4 14 -122 -4 -23 -2 -32 5 -27 6 3 11 15 11 26 0 10 5 19 11
19 6 0 9 -6 6 -14 -8 -21 13 -25 49 -10 29 12 33 11 58 -15 14 -15 26 -34 26
-42 0 -8 5 -20 11 -26 16 -16 3 -76 -19 -97 -10 -8 -36 -22 -58 -30 -21 -8
-33 -15 -25 -15 25 -2 95 38 110 61 8 13 17 54 20 93 l6 69 33 -63 c18 -34 42
-72 53 -84 31 -34 70 -125 76 -181 7 -59 25 -100 61 -138 14 -16 20 -28 13
-28 -7 0 -19 -7 -28 -15 -11 -12 -18 -13 -28 -5 -11 9 -21 6 -44 -11 -52 -39
-52 -139 3 -339 l23 -85 71 -5 72 -5 0 148 c0 96 -4 146 -10 142 -5 -3 -10 -1
-10 4 0 6 5 11 10 11 7 0 10 40 8 113 -3 111 -3 112 -28 115 -23 2 -24 2 -7
-12 12 -9 14 -16 8 -21 -14 -8 -31 3 -31 20 0 8 -9 30 -21 50 -21 35 -20 65 2
65 8 0 9 -11 5 -32 -4 -23 -3 -29 4 -22 19 19 21 112 3 134 -9 10 -20 17 -24
15 -4 -3 -13 3 -20 13 -13 15 -12 16 3 4 15 -12 17 -11 15 15 -1 15 -10 37
-19 47 -10 11 -18 25 -18 30 0 6 -9 22 -20 36 -21 27 -25 57 -10 80 7 11 8 5
4 -20 -5 -33 -5 -34 10 -15 9 11 21 38 26 60 6 22 15 48 20 57 13 23 -28 117
-42 97 -7 -10 -7 -8 -3 9 5 16 2 22 -9 22 -8 0 -24 14 -36 30 l-21 30 20 0
c23 0 28 18 8 26 -8 3 -14 21 -14 42 -1 29 1 32 6 13 4 -14 11 -26 17 -28 13
-4 15 68 2 85 -7 8 -7 12 1 12 7 0 9 5 6 10 -4 6 -9 31 -12 57 -2 25 -9 58
-15 72 -5 14 -14 71 -19 126 -17 199 -141 427 -262 483 -57 27 -151 35 -201
16z m156 -165 c12 -7 29 -14 36 -15 55 -9 111 -89 113 -163 2 -34 7 -55 16
-58 11 -4 11 -7 -1 -17 -8 -6 -17 -33 -19 -61 -7 -62 -32 -173 -47 -200 -6
-11 -27 -31 -48 -45 -37 -24 -43 -25 -167 -18 -75 4 -124 43 -140 110 -6 24
-5 26 16 21 20 -6 21 -3 15 18 -5 13 -9 38 -10 56 -2 24 1 30 12 25 10 -3 13
-1 8 6 -4 7 -13 12 -20 12 -17 0 -46 60 -46 94 0 14 -4 26 -10 26 -26 0 -6 19
26 24 19 4 42 10 50 13 8 3 14 0 14 -6 0 -6 -10 -11 -23 -11 -13 0 -28 -5 -35
-12 -18 -18 -15 -63 6 -85 9 -10 13 -13 8 -6 -6 10 -1 13 22 13 17 0 39 3 49
7 16 6 17 5 3 -13 -8 -10 -10 -16 -6 -12 5 4 15 3 22 -3 10 -8 18 -3 32 21 24
39 18 66 -17 80 -25 10 -25 10 -1 4 14 -3 33 -8 43 -11 12 -4 17 0 17 16 0 26
-36 42 -101 44 l-46 2 9 30 c30 95 47 120 89 128 37 7 105 0 131 -14z m-340
-70 c-9 -23 -18 -37 -20 -31 -3 10 24 72 32 72 3 0 -3 -19 -12 -41z m498 -334
c0 -8 -4 -15 -10 -15 -5 0 -7 7 -4 15 4 8 8 15 10 15 2 0 4 -7 4 -15z m-604
-97 c-23 -38 -37 -6 -14 35 11 21 11 21 18 2 4 -11 2 -28 -4 -37z m76 -91 c-4
-14 -7 -16 -13 -5 -12 19 -11 25 5 25 8 0 11 -8 8 -20z m338 -54 c-1 -31 -34
-47 -58 -29 -11 7 -8 12 10 22 26 15 48 18 48 7z m-378 -55 l-17 -43 -3 34
c-2 20 2 37 10 42 24 16 26 9 10 -33z m795 -260 c-3 -7 -5 -2 -5 12 0 14 2 19
5 13 2 -7 2 -19 0 -25z m-584 2 c-3 -11 -7 -20 -9 -20 -2 0 -4 9 -4 20 0 11 4
20 9 20 5 0 7 -9 4 -20z m86 -257 c-1 -10 -5 -29 -9 -43 -7 -21 -8 -19 -9 18
-1 23 4 42 9 42 6 0 10 -8 9 -17z m501 -331 c0 -4 -13 -16 -30 -25 -35 -21
-39 -16 -8 13 23 21 38 26 38 12z m63 -19 c-5 -11 -3 -14 6 -8 10 6 11 3 1
-14 -6 -12 -15 -19 -20 -16 -5 3 -12 0 -16 -6 -4 -8 -3 -9 4 -5 7 4 12 3 12
-2 0 -5 -9 -12 -20 -15 -17 -4 -18 -3 -8 16 28 54 55 86 41 50z m-22 -130 c13
-16 12 -17 -3 -4 -10 7 -18 15 -18 17 0 8 8 3 21 -13z m65 -30 c-10 -10 -19 5
-10 18 6 11 8 11 12 0 2 -7 1 -15 -2 -18z m-21 -43 c3 -5 1 -10 -4 -10 -6 0
-11 5 -11 10 0 6 2 10 4 10 3 0 8 -4 11 -10z"/>
<path d="M1192 3168 c-20 -20 -13 -30 16 -24 22 5 24 4 10 -4 -25 -16 -22 -52
7 -73 14 -10 25 -13 25 -8 0 6 7 8 15 4 9 -3 24 2 34 11 10 9 24 16 32 14 26
-6 20 31 -8 47 l-28 16 30 -6 c46 -10 16 14 -31 26 -54 12 -88 11 -102 -3z"/>
<path d="M1126 3104 c-10 -37 -50 -74 -83 -75 -26 0 -26 -1 -7 -9 12 -5 25
-14 30 -21 5 -8 3 -10 -6 -4 -9 6 -11 4 -5 -4 4 -7 16 -11 26 -8 11 3 19 0 19
-5 0 -7 5 -6 14 1 10 8 15 8 18 1 2 -6 16 -8 36 -4 32 6 40 28 11 30 -8 1 -18
3 -24 4 -5 1 -20 1 -32 0 -13 -1 -23 3 -23 9 0 6 4 11 9 11 5 0 12 16 15 35 4
19 14 41 22 50 13 13 13 15 1 15 -8 0 -18 -12 -21 -26z"/>
<path d="M1171 3114 c0 -11 3 -14 6 -6 3 7 2 16 -1 19 -3 4 -6 -2 -5 -13z"/>
<path d="M1186 3050 c7 -29 32 -60 47 -60 6 0 1 10 -10 23 -11 12 -26 31 -32
42 -11 18 -11 18 -5 -5z"/>
<path d="M1063 2927 c-35 -12 -50 -34 -34 -50 7 -7 12 -5 16 5 4 10 15 13 31
10 37 -7 43 -26 6 -20 -22 3 -33 0 -37 -11 -3 -8 -3 -12 1 -8 4 4 12 3 18 -2
6 -5 38 -10 71 -11 80 -3 87 -2 82 13 -2 6 -15 11 -29 9 -15 -2 -29 2 -33 7
-4 7 8 11 34 11 22 0 42 -5 44 -12 3 -7 6 -3 6 8 1 17 -11 27 -48 43 -53 23
-78 24 -128 8z m100 -24 c-7 -2 -21 -2 -30 0 -10 3 -4 5 12 5 17 0 24 -2 18
-5z"/>
<path d="M740 2545 c7 -8 17 -15 22 -15 6 0 5 7 -2 15 -7 8 -17 15 -22 15 -6
0 -5 -7 2 -15z"/>
<path d="M63 2543 c-95 -6 -76 -23 22 -22 60 1 85 5 82 13 -4 13 -18 14 -104
9z"/>
<path d="M1133 2482 c-28 -28 -28 -28 -3 -35 25 -6 43 15 33 39 -8 18 -9 18
-30 -4z"/>
<path d="M60 2421 c0 -5 8 -11 18 -14 9 -2 24 -8 33 -11 11 -5 18 -1 22 13 4
19 1 21 -34 21 -21 0 -39 -4 -39 -9z"/>
<path d="M0 2360 c0 -17 7 -20 50 -20 28 0 50 4 50 8 0 18 -26 32 -62 32 -31
0 -38 -4 -38 -20z"/>
<path d="M1075 2340 c10 -11 20 -20 23 -20 3 0 -3 9 -13 20 -10 11 -20 20 -23
20 -3 0 3 -9 13 -20z"/>
<path d="M3 2288 l-2 -38 75 0 c71 0 75 1 69 20 -4 11 -2 20 4 20 6 0 11 6 11
14 0 11 -19 15 -78 18 l-78 3 -1 -37z"/>
<path d="M200 2233 c0 -62 1 -66 16 -51 9 9 18 39 21 67 4 47 3 51 -16 51 -19
0 -21 -6 -21 -67z"/>
<path d="M369 2254 c-14 -8 -34 -30 -45 -51 -31 -62 -84 -139 -124 -182 -9 -9
-29 -34 -45 -56 -16 -22 -34 -43 -41 -48 -7 -4 -18 -24 -25 -45 -6 -20 -18
-44 -26 -54 -12 -13 -12 -23 -2 -57 7 -23 16 -41 20 -41 8 0 25 -91 23 -117
-1 -7 2 -13 6 -13 5 0 6 -9 3 -19 -8 -32 90 -163 191 -254 50 -45 96 -87 101
-94 6 -6 32 -30 58 -52 27 -23 45 -41 42 -41 -4 0 3 -14 15 -31 25 -35 32 -32
37 15 2 21 -2 38 -12 46 -12 10 -13 16 -4 26 15 19 33 18 25 -1 -3 -8 -2 -15
2 -15 7 0 12 -33 15 -87 0 -12 11 -17 30 -14 5 1 6 -2 3 -7 -3 -5 -2 -22 3
-38 6 -21 3 -41 -10 -69 -10 -22 -18 -34 -18 -27 -1 6 -6 12 -12 12 -8 0 -9
-13 -5 -39 3 -22 3 -47 0 -55 -11 -30 -24 -16 -25 27 0 23 -4 51 -9 62 -7 19
-8 19 -19 -5 -7 -14 -18 -36 -26 -50 -8 -14 -11 -26 -6 -28 8 -3 7 -41 -4
-106 -4 -21 5 -47 30 -93 19 -35 35 -70 35 -78 0 -8 4 -15 10 -15 10 0 7 -60
-4 -78 -6 -10 -3 -40 14 -131 10 -53 7 -62 -42 -126 -21 -27 -38 -54 -38 -58
0 -5 -9 -22 -21 -39 -12 -16 -19 -32 -16 -34 3 -3 -1 -21 -9 -39 -8 -19 -14
-39 -14 -45 0 -7 211 -10 655 -10 l655 0 0 294 0 295 -45 7 c-25 3 -45 11 -44
18 1 6 -1 19 -6 29 -4 10 -3 34 3 53 7 23 7 60 0 114 -9 78 -11 82 -54 122
-24 22 -43 43 -41 45 3 2 20 5 38 7 124 14 139 19 145 42 9 34 1 59 -19 58 -9
0 -51 -1 -92 -2 -41 -1 -75 -5 -75 -9 0 -5 37 -5 82 -2 46 3 86 4 91 2 4 -2 7
-13 7 -24 0 -13 -4 -18 -12 -13 -7 5 -8 3 -3 -6 6 -10 4 -12 -9 -7 -9 4 -15 3
-11 -3 6 -9 0 -10 -82 -14 -29 -1 -55 -5 -59 -9 -4 -4 -16 -7 -27 -7 -16 0
-17 2 -7 15 10 12 15 13 21 4 4 -7 6 -1 6 14 -1 15 -3 27 -3 27 -1 0 -19 -18
-41 -39 -25 -25 -58 -45 -93 -56 -71 -23 -289 -31 -401 -16 -46 7 -148 15
-226 18 -120 5 -142 8 -142 22 -2 99 -14 178 -30 191 -10 8 -35 36 -55 62 -21
26 -42 46 -46 43 -5 -3 -12 0 -16 6 -4 8 -3 9 4 5 17 -10 15 9 -3 24 -8 6 -20
8 -26 4 -7 -4 -9 -3 -6 4 9 14 -3 43 -14 36 -5 -3 -6 1 -3 9 3 8 -3 20 -12 28
-16 12 -17 12 -11 -4 4 -11 3 -16 -4 -12 -6 4 -8 13 -5 21 6 16 -38 86 -48 76
-4 -3 -4 2 0 12 6 15 4 17 -6 11 -9 -5 -11 -4 -6 3 4 6 -4 26 -16 45 -112 165
-114 171 -73 242 34 57 51 71 59 49 4 -9 -4 -34 -18 -58 -19 -33 -23 -51 -19
-91 5 -51 18 -79 34 -69 5 3 9 1 9 -4 0 -5 14 -6 32 -4 28 4 30 6 14 18 -17
12 -17 13 1 22 22 12 53 -2 53 -23 0 -10 11 -15 35 -15 19 0 35 5 35 11 0 6 7
17 15 26 10 10 15 32 14 66 -2 62 -37 117 -74 117 -13 0 -33 11 -44 26 -15 19
-27 25 -45 22 -23 -5 -21 -1 17 45 108 129 119 139 133 120 14 -20 13 -21 39
31 11 21 25 39 30 40 6 0 18 7 27 15 13 11 14 17 6 23 -7 4 -20 -2 -31 -13
-22 -23 -41 -21 -45 7 -2 10 -24 33 -50 51 -26 18 -58 41 -72 51 -22 16 -28
17 -51 6z m-19 -594 c0 -5 -5 -12 -11 -16 -14 -8 -33 11 -25 25 7 11 36 4 36
-9z m157 -425 c0 -8 -4 -15 -9 -15 -10 0 -11 14 -1 23 9 10 10 9 10 -8z m33
-25 c0 -5 -4 -10 -10 -10 -5 0 -10 5 -10 10 0 6 5 10 10 10 6 0 10 -4 10 -10z
m57 -352 c-3 -7 -5 -2 -5 12 0 14 2 19 5 13 2 -7 2 -19 0 -25z m6 -78 c-4 -16
-8 -18 -19 -9 -20 16 -17 29 5 29 14 0 18 -5 14 -20z"/>
<path d="M175 2160 c4 -6 -27 -10 -84 -10 -71 0 -91 -3 -91 -14 0 -18 31 -26
102 -26 48 0 59 4 72 22 19 26 20 38 5 38 -5 0 -7 -4 -4 -10z"/>
<path d="M64 2029 c-11 -18 -13 -69 -3 -69 9 0 13 21 9 55 -2 17 0 18 16 5 15
-13 17 -13 13 -1 -7 20 -25 25 -35 10z"/>
<path d="M1631 1861 c-7 -5 -11 -15 -9 -22 3 -10 8 -7 17 9 13 24 12 26 -8 13z"/>
<path d="M18 1665 c6 -11 17 -29 26 -40 15 -20 15 -20 10 2 -4 12 -15 30 -26
40 -20 18 -21 17 -10 -2z"/>
<path d="M590 1580 c0 -5 7 -10 16 -10 8 0 12 5 9 10 -3 6 -10 10 -16 10 -5 0
-9 -4 -9 -10z"/>
<path d="M580 1008 c0 -19 2 -20 10 -8 13 19 13 30 0 30 -5 0 -10 -10 -10 -22z"/>
<path d="M493 323 c15 -2 37 -2 50 0 12 2 0 4 -28 4 -27 0 -38 -2 -22 -4z"/>
<path d="M203 293 c15 -2 37 -2 50 0 12 2 0 4 -28 4 -27 0 -38 -2 -22 -4z"/>
<path d="M327 283 c18 -2 50 -2 70 0 21 2 7 4 -32 4 -38 0 -55 -2 -38 -4z"/>
<path d="M453 273 c9 -2 23 -2 30 0 6 3 -1 5 -18 5 -16 0 -22 -2 -12 -5z"/>
<path d="M408 243 c12 -2 30 -2 40 0 9 3 -1 5 -23 4 -22 0 -30 -2 -17 -4z"/>
</g>
</svg>
