<?xml version="1.0" standalone="no"?>
<!DOCTYPE svg PUBLIC "-//W3C//DTD SVG 20010904//EN"
 "http://www.w3.org/TR/2001/REC-SVG-20010904/DTD/svg10.dtd">
<svg version="1.0" xmlns="http://www.w3.org/2000/svg"
 width="187.000000pt" height="382.000000pt" viewBox="0 0 187.000000 382.000000"
 preserveAspectRatio="xMidYMid meet">

<g transform="translate(0.000000,382.000000) scale(0.100000,-0.100000)"
fill="#000000" stroke="none">
<path d="M945 3761 c-50 -24 -84 -50 -67 -52 6 -1 17 -3 22 -4 6 -1 21 -3 35
-4 18 -1 25 -6 23 -18 -2 -9 7 -22 19 -28 13 -7 20 -15 16 -18 -9 -10 58 -7
82 3 l20 9 -20 1 c-11 1 -29 2 -40 2 -16 -1 -16 0 -3 4 9 3 18 13 20 21 2 14
15 16 68 14 53 -1 69 -6 85 -24 11 -12 35 -33 53 -45 17 -13 32 -31 33 -40 0
-9 3 -12 5 -5 15 34 -70 125 -160 172 -69 37 -130 40 -191 12z"/>
<path d="M1020 3610 c-25 -5 -56 -6 -69 -3 -22 6 -24 4 -18 -26 6 -28 4 -31
-21 -33 -15 0 -34 -1 -42 0 -22 1 -51 -18 -45 -29 4 -5 16 -9 28 -9 20 -1 20
-2 -5 -16 -31 -16 -37 -27 -10 -17 15 6 16 5 2 -12 -14 -17 -13 -18 3 -12 14
5 16 2 13 -18 -5 -29 19 -40 56 -26 33 12 50 36 47 63 -2 13 0 29 4 36 5 6 4
12 0 12 -5 0 -9 9 -10 20 -2 22 13 27 20 8 3 -10 7 -10 18 -1 8 6 31 14 51 18
55 10 37 22 -25 17 -30 -2 -57 0 -60 5 -3 5 4 9 16 9 73 1 107 5 107 14 0 6
-3 9 -7 9 -5 -1 -28 -5 -53 -9z"/>
<path d="M1011 3530 c-13 -11 -18 -20 -11 -20 6 0 10 -8 9 -17 -2 -19 7 -49
22 -73 5 -8 12 -23 15 -32 4 -10 10 -18 15 -18 5 0 9 -4 9 -10 0 -5 -7 -7 -15
-4 -10 4 -15 0 -15 -11 0 -13 -3 -15 -12 -7 -7 5 -43 10 -79 11 -62 1 -66 0
-78 -25 l-12 -27 28 18 c27 18 27 18 -4 -19 -26 -29 -33 -46 -33 -79 -1 -38
-2 -40 -15 -24 -13 18 -14 17 -17 -5 -5 -31 16 -74 61 -123 20 -22 26 -31 14
-21 -21 17 -23 17 -24 3 -1 -10 -2 -23 -3 -29 0 -7 -8 -14 -17 -16 -17 -3 -29
24 -29 67 0 23 -1 24 -20 6 -11 -10 -23 -34 -26 -54 -4 -20 -15 -47 -25 -60
-18 -23 -19 -23 -19 -3 0 32 -21 38 -41 11 -15 -20 -19 -21 -19 -6 0 9 -3 17
-7 17 -12 0 -68 -39 -69 -47 -2 -27 -17 -74 -26 -79 -11 -7 -8 11 7 49 6 13 3
16 -9 11 -9 -3 -16 -1 -16 5 0 6 -5 11 -11 11 -6 0 -8 -7 -5 -16 5 -12 1 -14
-15 -9 -14 5 -19 3 -15 -3 3 -6 -2 -8 -13 -5 -29 7 -60 -13 -54 -36 5 -20 -11
-35 -37 -36 -12 0 -14 -11 -12 -55 3 -51 3 -54 -12 -35 -8 11 -16 17 -17 13
-1 -5 -2 -11 -3 -15 -1 -5 -5 -13 -9 -20 -4 -7 -2 -33 4 -58 8 -33 9 -53 1
-68 -5 -12 -14 -31 -18 -42 -6 -15 -9 -7 -14 32 -3 28 -9 55 -14 60 -5 4 -7
-9 -4 -29 2 -21 0 -38 -4 -38 -4 0 -8 6 -9 13 0 6 -4 3 -9 -8 -6 -14 -7 -8 -4
20 5 37 4 41 -16 42 -21 2 -21 1 -5 -11 13 -9 15 -15 6 -20 -6 -4 -9 -12 -6
-17 4 -5 1 -9 -6 -9 -6 0 -9 8 -6 20 3 11 3 20 1 20 -11 0 -28 -64 -41 -150
-7 -52 -15 -104 -18 -115 -2 -11 -6 -27 -8 -35 -10 -43 -20 -61 -32 -56 -9 3
-14 -6 -17 -29 -2 -18 -1 -32 3 -29 17 10 16 -29 -1 -46 -21 -21 -28 -70 -10
-70 6 0 5 -8 -2 -19 -9 -15 -15 -17 -26 -9 -7 6 -11 17 -8 24 3 7 -15 -1 -39
-19 l-43 -32 -1 -332 -1 -333 38 -1 c20 0 46 -3 57 -5 11 -2 57 -9 103 -15 75
-10 85 -9 103 7 10 9 19 30 19 45 0 15 5 31 10 34 6 3 8 29 6 57 -4 58 2 88
17 88 6 0 7 -3 4 -7 -4 -3 -3 -11 2 -17 5 -6 5 -34 2 -63 -4 -28 -4 -60 0 -71
7 -20 -8 -48 -48 -90 -7 -7 -13 -19 -13 -27 0 -7 -3 -22 -7 -32 -6 -16 -5 -16
10 -4 25 20 30 8 9 -20 -10 -13 -24 -37 -30 -54 -19 -50 -52 -192 -52 -224 0
-20 -9 -39 -26 -55 -34 -31 -46 -114 -20 -135 9 -7 16 -21 16 -31 0 -10 16
-42 36 -71 l36 -54 -11 -61 c-6 -34 -11 -75 -11 -92 l0 -30 -52 28 c-48 25
-168 70 -190 70 -4 0 -8 -121 -8 -270 l0 -270 395 0 395 0 -5 23 c-8 30 29
170 60 230 14 27 25 53 25 58 0 14 49 89 58 89 4 0 21 -33 37 -73 25 -60 30
-87 32 -164 0 -51 6 -108 13 -128 l12 -35 274 0 c212 0 274 3 276 13 2 13 3
89 7 342 3 244 -16 367 -51 323 -20 -24 -45 -29 -53 -11 -7 21 4 32 35 35 27
3 65 42 56 56 -3 5 6 20 19 32 32 30 32 63 0 84 l-25 16 0 -50 c0 -27 -4 -50
-10 -50 -5 0 -10 16 -10 37 0 41 -12 38 -15 -4 -3 -48 -4 -51 -24 -56 -15 -3
-20 2 -25 25 -11 56 -7 63 44 89 43 21 50 28 50 54 0 53 -12 104 -26 109 -13
5 -13 -2 1 -56 6 -24 4 -28 -14 -28 -12 0 -21 -6 -21 -14 0 -7 -9 -16 -20 -19
-16 -4 -20 0 -20 21 0 15 -3 37 -6 49 -5 17 -1 25 12 30 11 4 24 12 29 19 6 7
19 14 30 16 16 3 19 10 17 38 -1 19 -6 37 -11 40 -4 3 -16 22 -26 42 -17 38
-17 38 6 57 25 20 34 20 175 5 l52 -5 -24 -74 c-20 -65 -22 -81 -13 -136 6
-35 14 -66 19 -69 4 -3 5 -23 1 -45 -10 -57 -6 -147 8 -173 9 -18 9 -22 -1
-20 -8 2 -12 -4 -10 -14 2 -10 -2 -18 -9 -18 -8 0 -8 -4 1 -15 10 -12 10 -15
-2 -15 -16 0 -19 -51 -3 -62 6 -5 6 -8 -2 -8 -7 0 -14 -35 -18 -98 -4 -53 -12
-103 -19 -111 -9 -12 -8 -13 3 -7 11 7 12 -1 9 -38 -3 -25 -2 -46 2 -46 3 0 4
-14 2 -31 -3 -23 -7 -28 -14 -18 -7 10 -8 8 -3 -6 10 -28 6 -195 -6 -217 -9
-17 -3 -18 96 -18 l105 0 0 948 0 947 -32 40 c-28 34 -29 37 -8 22 13 -9 28
-17 32 -17 5 0 8 191 8 425 0 290 -3 425 -10 425 -21 0 -75 -33 -98 -59 -15
-16 -22 -19 -18 -9 3 9 2 19 -2 21 -4 2 -2 3 4 1 13 -3 34 15 34 28 0 4 -5 8
-11 8 -6 0 -17 7 -25 15 -12 11 -12 19 -4 35 6 11 7 20 1 20 -5 0 -12 -11 -15
-25 -4 -14 -13 -25 -21 -25 -19 0 -19 0 10 -51 29 -51 30 -59 10 -59 -9 0 -12
6 -9 15 4 8 -6 31 -20 50 -30 38 -54 48 -36 14 18 -33 20 -96 4 -110 -12 -9
-14 -6 -14 24 0 22 -6 37 -15 41 -12 4 -14 0 -9 -19 3 -14 2 -25 -4 -25 -5 0
-12 14 -16 31 -10 51 -8 57 19 51 24 -4 25 -3 14 19 -6 13 -24 34 -40 47 -24
20 -28 21 -22 5 6 -16 5 -16 -10 -4 -10 8 -16 23 -15 35 2 16 -3 21 -22 22
-14 1 -34 5 -45 10 -19 7 -19 6 -4 -12 21 -25 31 -54 19 -54 -10 0 -54 56 -56
71 -1 5 -2 13 -3 19 -1 8 -52 40 -64 40 -2 0 -2 -12 0 -27 4 -21 -4 -13 -32
32 -45 73 -62 93 -97 111 l-28 15 0 -78 c0 -51 6 -88 16 -108 15 -29 15 -31
-16 -56 -30 -25 -90 -49 -124 -49 -14 0 -14 3 -4 23 7 12 17 25 22 28 13 10
-3 29 -25 29 -14 0 -18 4 -12 13 12 19 13 40 1 54 -11 14 -6 16 27 14 19 -2
19 -1 -2 18 -28 24 -29 48 -4 56 25 8 113 116 124 152 31 103 43 186 18 119
-6 -14 -15 -26 -21 -26 -6 0 -8 -4 -5 -10 3 -5 0 -10 -7 -10 -13 0 -28 -10
-88 -57 l-27 -23 -6 35 c-3 21 -17 45 -34 59 -22 19 -25 27 -16 37 10 10 14 9
19 -4 8 -23 26 -10 19 13 -3 10 -2 21 3 24 5 3 7 17 4 31 -4 22 -1 25 24 25
23 0 26 2 14 10 -11 7 -11 10 -2 10 7 0 11 4 8 9 -3 4 5 6 17 4 18 -4 23 0 25
21 1 15 -5 30 -16 36 -15 10 -14 11 6 7 13 -3 22 0 22 7 0 18 -38 34 -95 40
-41 5 -54 2 -74 -14z m134 -70 c3 -6 -1 -7 -9 -4 -18 7 -21 14 -7 14 6 0 13
-4 16 -10z m60 -243 c-7 -17 -35 -32 -35 -18 0 5 7 12 16 15 10 4 14 12 9 24
-4 12 -3 14 5 6 6 -6 8 -18 5 -27z m-291 -3 c9 -3 16 -11 16 -16 0 -6 -6 -8
-14 -5 -7 3 -19 0 -25 -6 -16 -16 -25 -1 -10 17 17 18 14 17 33 10z m-54 -64
c0 -5 -2 -10 -4 -10 -3 0 -8 5 -11 10 -3 6 -1 10 4 10 6 0 11 -4 11 -10z
m-149 -197 c-12 -20 -14 -14 -5 12 4 9 9 14 11 11 3 -2 0 -13 -6 -23z m-94
-45 c-3 -8 -6 -5 -6 6 -1 11 2 17 5 13 3 -3 4 -12 1 -19z m133 -58 c-6 -11
-18 -20 -27 -20 -15 0 -15 1 1 13 10 7 17 20 15 28 -1 7 2 23 7 34 8 18 9 18
12 -7 2 -15 -2 -36 -8 -48z m677 38 c6 -7 9 -23 8 -35 -2 -24 58 -88 74 -78
11 6 30 -55 30 -95 -1 -59 19 -213 28 -219 5 -3 12 -13 15 -22 5 -13 2 -16
-13 -12 -15 4 -19 0 -19 -20 0 -14 -5 -29 -11 -33 -6 -3 -9 -14 -6 -24 3 -12
0 -17 -8 -14 -7 3 -11 13 -8 23 3 12 -2 20 -14 23 -29 8 -43 -2 -44 -30 0 -24
-2 -22 -17 15 -10 23 -26 50 -37 59 -18 14 -18 15 -1 10 16 -5 17 -2 12 21 -5
23 -4 25 4 10 6 -9 16 -15 21 -12 5 4 7 10 5 14 -3 4 19 7 48 6 48 0 53 1 48
20 -7 30 -22 45 -38 38 -8 -3 -14 -13 -15 -22 -1 -9 -9 7 -18 36 -9 29 -20 55
-24 59 -13 13 4 24 38 24 35 0 45 12 37 43 -4 15 -13 18 -45 15 -32 -2 -42 1
-48 17 -13 35 -10 51 12 52 25 2 51 22 31 24 -7 1 -17 2 -24 3 -18 2 -58 65
-58 92 0 26 21 32 37 12z m-603 -48 c17 -44 17 -45 -1 -25 -10 11 -20 33 -21
49 -3 36 0 33 22 -24z m641 0 c3 -5 1 -10 -4 -10 -6 0 -11 5 -11 10 0 6 2 10
4 10 3 0 8 -4 11 -10z m-120 -35 c-17 -13 -34 -24 -40 -25 -5 0 6 13 25 29 19
16 37 27 40 25 2 -3 -9 -16 -25 -29z m-915 -25 c0 -5 -4 -10 -9 -10 -6 0 -13
5 -16 10 -3 6 1 10 9 10 9 0 16 -4 16 -10z m1137 -22 c10 -13 24 -58 18 -58
-2 0 -12 16 -24 35 -19 33 -15 49 6 23z m-1140 -30 c-3 -7 -5 -2 -5 12 0 14 2
19 5 13 2 -7 2 -19 0 -25z m970 -22 c5 -30 3 -35 -10 -30 -11 4 -16 18 -15 46
0 47 16 38 25 -16z m-78 -26 c21 -43 21 -44 2 -20 -11 14 -21 29 -21 34 0 4
-9 6 -20 3 -13 -3 -20 0 -20 10 0 9 6 13 15 9 8 -3 15 0 15 6 0 16 4 10 29
-42z m387 -16 c2 -20 -1 -32 -6 -29 -6 4 -10 22 -10 42 0 45 13 35 16 -13z
m-426 12 c0 -11 -19 -15 -25 -6 -3 5 1 10 9 10 9 0 16 -2 16 -4z m-374 -33
c-6 -6 -36 9 -36 18 0 5 9 4 20 -3 10 -7 18 -14 16 -15z m-358 5 c16 -16 15
-28 -2 -28 -9 0 -12 -7 -9 -19 3 -10 0 -22 -6 -25 -7 -5 -11 8 -11 38 0 47 7
55 28 34z m65 -5 c-7 -2 -19 -2 -25 0 -7 3 -2 5 12 5 14 0 19 -2 13 -5z m1184
-248 c-3 -38 -21 -39 -25 -2 -3 23 -8 28 -22 24 -13 -3 -17 0 -13 9 3 8 9 12
13 9 13 -8 19 33 10 68 -5 17 -11 57 -14 87 -4 45 0 35 24 -55 17 -60 29 -123
27 -140z m-954 195 c35 -18 47 -30 47 -47 0 -14 -6 -23 -15 -23 -8 0 -15 6
-15 14 0 8 -9 24 -19 37 -19 23 -20 23 -27 5 -7 -19 -8 -19 -15 0 -6 15 -8 12
-8 -13 -1 -31 -21 -49 -21 -19 0 27 13 77 19 74 3 -2 27 -14 54 -28z m580 23
c3 -5 8 -35 12 -68 l6 -60 -26 54 c-25 52 -27 81 -6 81 5 0 12 -3 14 -7z m201
-8 c3 -8 1 -15 -4 -15 -6 0 -10 7 -10 15 0 8 2 15 4 15 2 0 6 -7 10 -15z m101
-17 c-7 -25 -9 -31 -20 -97 -7 -40 -9 -42 -17 -22 -11 32 -4 85 16 116 20 31
31 32 21 3z m-321 -78 c4 -14 -5 -5 -18 20 -14 25 -25 52 -25 60 0 18 34 -45
43 -80z m251 51 c-2 -9 -4 -27 -5 -41 -1 -21 -3 -22 -9 -7 -9 24 -1 93 9 77 4
-7 6 -20 5 -29z m-1305 -125 c-1 -20 -30 27 -30 48 0 18 3 16 15 -8 8 -15 15
-33 15 -40z m183 12 c-3 -21 -10 -38 -15 -38 -6 0 -8 10 -4 23 3 12 6 33 6 47
0 14 4 20 9 15 4 -6 6 -27 4 -47z m179 10 c5 -48 4 -53 -11 -43 -13 8 -15 85
-2 85 5 0 11 -19 13 -42z m-453 -7 c-2 -6 -10 2 -17 17 -11 25 -11 25 4 10 9
-9 15 -21 13 -27z m529 -5 c3 -12 -1 -17 -10 -14 -7 3 -15 13 -16 22 -3 12 1
17 10 14 7 -3 15 -13 16 -22z m82 -1 c0 -8 -9 -15 -19 -15 -29 0 -35 18 -9 23
13 2 24 5 26 6 1 0 2 -6 2 -14z m760 -55 c-8 -31 -24 -28 -27 6 -2 33 19 60
28 36 3 -9 3 -28 -1 -42z m-241 10 c10 -22 16 -40 12 -40 -6 0 -41 64 -41 75
0 15 12 0 29 -35z m327 -17 c7 -39 -10 -69 -26 -43 -8 12 -10 12 -16 -3 -3 -9
-12 -17 -19 -17 -17 0 -9 54 13 92 20 34 38 22 48 -29z m-1488 -45 c7 -7 11
-30 11 -52 -2 -33 -3 -35 -6 -12 -3 16 -12 40 -20 53 -16 24 -6 32 15 11z
m502 -18 c0 -13 -5 -18 -15 -14 -16 7 -19 17 -8 27 12 13 23 7 23 -13z m-176
-5 c7 -19 -3 -19 -28 0 -19 15 -19 15 1 15 11 0 23 -7 27 -15z m997 -5 c25
-14 24 -30 -1 -30 -15 0 -20 -7 -20 -25 0 -26 -32 -47 -57 -38 -8 3 -13 -4
-13 -18 0 -19 -2 -21 -9 -9 -6 8 -7 18 -5 22 3 4 2 13 -2 19 -4 8 -9 7 -15 -2
-6 -9 -9 1 -9 30 0 35 3 42 15 37 9 -3 18 1 21 9 7 18 65 20 95 5z m262 -52
c4 -43 2 -48 -15 -48 -15 0 -19 6 -16 28 2 22 -1 27 -18 26 -15 0 -20 4 -17
13 3 8 12 12 21 8 9 -3 13 -3 9 1 -4 4 -2 13 5 21 16 20 25 5 31 -49z m-200 4
c-6 -40 -21 -65 -33 -57 -8 5 2 74 14 93 14 23 25 2 19 -36z m-883 13 c0 -8
-4 -15 -10 -15 -5 0 -10 7 -10 15 0 8 5 15 10 15 6 0 10 -7 10 -15z m129 -2
c0 -12 -2 -13 -6 -5 -4 10 -8 10 -19 1 -14 -11 -20 1 -7 14 13 13 33 7 32 -10z
m871 -19 c13 -33 13 -64 0 -64 -5 0 -10 9 -10 20 0 11 -6 20 -12 20 -9 0 -8 4
2 11 14 9 6 9 -68 -1 -1 0 -7 -10 -12 -22 -10 -23 -10 -23 -7 2 1 17 13 30 37
42 47 24 59 23 70 -8z m103 -162 l5 -43 -26 26 c-24 24 -27 25 -32 9 -6 -17
-7 -17 -17 1 -10 18 -13 17 -38 -13 -15 -18 -30 -30 -33 -27 -3 3 5 17 19 31
20 21 21 27 9 34 -13 9 -13 10 0 11 8 1 20 1 27 0 6 -1 20 9 30 23 17 22 19
23 34 7 9 -9 18 -36 22 -59z m-329 53 c0 -5 -4 -26 -8 -46 -7 -31 -12 -36 -38
-37 -16 0 -36 -6 -43 -12 -12 -10 -13 -6 -5 20 21 73 32 88 65 87 16 -1 30 -6
29 -12z m64 -49 c-7 -25 -16 -46 -21 -46 -10 0 2 71 16 88 17 21 18 7 5 -42z
m-731 -8 c-2 -13 -4 -5 -4 17 -1 22 1 32 4 23 2 -10 2 -28 0 -40z m560 -14
c-3 -3 -12 -4 -19 -1 -8 3 -5 6 6 6 11 1 17 -2 13 -5z m456 -70 l4 -25 -22 21
c-16 15 -30 20 -44 15 -12 -4 -21 -2 -21 4 0 6 17 11 39 11 34 0 39 -3 44 -26z
m-583 -33 c0 -11 -5 -23 -12 -27 -7 -5 -5 -11 8 -21 15 -11 16 -15 5 -22 -8
-5 8 -11 45 -16 33 -4 64 -11 71 -16 7 -7 14 -6 18 0 3 6 25 8 48 6 23 -3 82
-7 130 -8 77 -3 87 -2 82 12 -3 9 4 5 15 -8 32 -37 12 -50 -71 -47 -38 2 -72
-2 -76 -7 -3 -5 -9 -4 -13 3 -6 9 -11 7 -19 -9 -9 -16 -21 -21 -51 -21 -34 0
-47 -7 -82 -42 l-42 -43 22 38 c21 37 15 40 -20 9 -20 -16 -38 -8 -38 17 0 10
-7 24 -15 31 -9 7 -14 19 -11 27 3 7 -1 13 -9 13 -8 0 -15 5 -15 10 0 6 -7 10
-15 10 -19 0 -20 34 -1 49 8 6 16 20 19 31 5 18 4 18 -21 2 -15 -9 -41 -32
-59 -50 -26 -26 -33 -29 -33 -15 0 23 36 63 80 90 44 27 60 28 60 4z m208 11
c21 -7 22 -8 7 -29 -15 -22 -43 -34 -30 -13 3 6 1 10 -4 10 -6 0 -11 -4 -11
-10 0 -5 -6 -10 -14 -10 -13 0 -28 45 -18 55 7 6 40 5 70 -3z m-98 -16 c0 -8
-4 -17 -8 -20 -4 -2 -8 4 -8 15 0 10 4 19 8 19 4 0 8 -6 8 -14z m141 -13 c-12
-20 -14 -14 -5 12 4 9 9 14 11 11 3 -2 0 -13 -6 -23z m262 5 c12 -13 25 -22
29 -21 3 1 9 -4 12 -13 4 -10 2 -13 -6 -8 -8 5 -9 -2 -4 -22 4 -16 8 -53 9
-83 2 -44 -1 -55 -15 -57 -14 -2 -15 2 -6 22 8 18 8 35 -2 66 -20 63 -30 68
-24 12 8 -68 -9 -125 -47 -153 l-31 -23 15 24 c26 41 27 72 7 129 -18 50 -38
73 -102 122 -23 17 -22 17 34 15 32 -1 61 1 65 5 13 14 43 7 66 -15z m-1666
-3 c0 -8 -4 -12 -8 -9 -5 3 -18 0 -29 -6 -12 -6 -20 -7 -20 -1 0 5 12 14 28
19 15 6 27 11 28 11 0 1 1 -6 1 -14z m1000 -49 c-5 -11 -19 -16 -49 -16 -41 1
-42 1 -23 16 11 8 28 13 38 10 11 -3 17 2 17 12 0 12 3 13 11 5 7 -7 9 -19 6
-27z m-867 10 c0 -2 -8 -10 -17 -17 -16 -13 -17 -12 -4 4 13 16 21 21 21 13z
m1127 -2 c-3 -3 -12 -4 -19 -1 -8 3 -5 6 6 6 11 1 17 -2 13 -5z m-1303 -35
c-14 -15 -15 -22 -6 -28 10 -6 10 -13 1 -34 -10 -22 -14 -24 -35 -15 l-24 11
20 22 c11 12 20 25 20 30 0 7 30 34 39 35 2 0 -4 -9 -15 -21z m276 7 c0 -2 -7
-7 -16 -10 -8 -3 -12 -2 -9 4 6 10 25 14 25 6z m1497 -28 c-3 -7 -5 -2 -5 12
0 14 2 19 5 13 2 -7 2 -19 0 -25z m-687 -18 c0 -5 18 -21 39 -34 39 -25 98
-92 89 -101 -7 -8 -69 16 -63 24 8 14 -49 59 -85 69 -32 8 -33 9 -13 16 14 4
20 12 16 22 -3 7 0 14 6 14 6 0 11 -4 11 -10z m48 -161 c39 -47 51 -69 35 -69
-3 0 -29 24 -56 53 -27 28 -64 57 -81 64 -17 6 -24 12 -15 12 9 1 23 8 30 17
12 15 15 14 29 -6 8 -12 34 -44 58 -71z m620 19 c-6 -29 -16 -100 -23 -158 -9
-77 -13 -92 -14 -55 -1 28 -4 86 -7 130 -6 76 -5 81 19 108 14 15 28 27 30 27
2 0 0 -24 -5 -52z m-508 3 c0 -5 -7 -14 -15 -21 -8 -7 -15 -20 -16 -29 0 -12
-2 -12 -6 -3 -6 16 16 62 29 62 4 0 8 -4 8 -9z m-230 -21 c21 -13 7 -22 -25
-14 -20 5 -23 9 -13 15 16 11 20 11 38 -1z m336 -69 c5 -25 4 -32 -4 -27 -7 4
-12 18 -12 32 0 13 -4 24 -10 24 -5 0 -10 8 -10 17 0 29 28 -7 36 -46z m191
38 c32 5 63 10 68 11 43 9 45 4 45 -111 l0 -110 -102 2 c-57 1 -110 -2 -119
-5 -10 -5 -19 1 -27 16 -11 23 -11 23 -11 -4 -1 -25 -17 -46 -27 -35 -3 3 -6
17 -8 31 -1 14 -6 29 -9 33 -15 14 -5 32 23 42 30 10 35 6 31 -25 -1 -6 6 -18
15 -25 18 -15 18 -18 -1 49 -4 13 -2 22 5 22 7 0 8 21 4 66 l-7 66 31 -16 c26
-13 43 -15 89 -7z m-292 2 c3 -5 1 -12 -5 -16 -5 -3 -10 1 -10 9 0 18 6 21 15
7z m-261 -37 c5 -13 2 -15 -16 -10 -13 3 -29 6 -36 6 -7 0 -10 5 -7 10 10 16
52 12 59 -6z m-864 -4 c0 -5 -2 -10 -4 -10 -3 0 -8 5 -11 10 -3 6 -1 10 4 10
6 0 11 -4 11 -10z m1127 -22 c-3 -7 -5 -2 -5 12 0 14 2 19 5 13 2 -7 2 -19 0
-25z m138 12 c3 -5 1 -10 -4 -10 -6 0 -11 5 -11 10 0 6 2 10 4 10 3 0 8 -4 11
-10z m-1235 -42 c15 -21 17 -28 6 -19 -16 13 -41 51 -33 51 2 0 14 -15 27 -32z
m-57 15 c-7 -2 -19 -2 -25 0 -7 3 -2 5 12 5 14 0 19 -2 13 -5z m-136 -59 c-3
-3 -12 -4 -19 -1 -8 3 -5 6 6 6 11 1 17 -2 13 -5z m1492 -219 c0 -11 -3 -14
-6 -7 -7 18 -23 15 -24 -5 -1 -10 -5 0 -8 22 -7 38 -7 36 -17 -35 l-10 -75
-11 70 c-11 73 -4 101 24 91 9 -4 16 5 20 27 l7 32 13 -50 c7 -27 12 -59 12
-70z m-1159 60 c0 -8 -4 -15 -8 -15 -5 0 -9 7 -9 15 0 8 4 15 9 15 4 0 8 -7 8
-15z m254 -22 c-7 -40 -19 -61 -30 -51 -3 4 -1 16 6 27 12 23 8 26 -21 11 -12
-7 -19 -7 -19 -1 0 5 9 12 19 16 11 3 22 12 25 20 12 32 27 15 20 -22z m69
-11 c-18 -5 -27 3 -18 17 4 7 10 7 20 -2 11 -10 11 -13 -2 -15z m62 -3 c-10
-15 -25 -10 -19 6 4 8 10 12 15 9 5 -3 7 -10 4 -15z m-80 -49 c3 -5 1 -10 -4
-10 -6 0 -11 5 -11 10 0 6 2 10 4 10 3 0 8 -4 11 -10z m-284 -37 c3 -18 12
-40 19 -48 17 -20 7 -29 -25 -21 -21 5 -25 12 -25 41 0 18 -4 37 -10 40 -18
11 -10 26 12 23 16 -2 24 -12 29 -35z m436 0 c-3 -10 -5 -4 -5 12 0 17 2 24 5
18 2 -7 2 -21 0 -30z m-224 -48 c-3 -8 -9 -15 -14 -15 -10 0 -12 24 -3 33 11
11 24 -3 17 -18z m895 -26 c2 -44 -15 -87 -28 -73 -16 17 -15 94 0 104 24 15
27 12 28 -31z m-823 14 c-5 -10 -10 -33 -13 -50 -7 -51 -22 -39 -21 17 1 43 4
50 21 50 15 0 18 -4 13 -17z m686 -40 c2 -23 0 -45 -4 -49 -4 -4 -7 17 -7 46
0 62 7 64 11 3z m-631 21 c0 -11 -5 -14 -16 -10 -9 3 -18 6 -20 6 -3 0 -2 5 1
10 10 16 35 12 35 -6z m-146 -18 c-3 -9 -10 -16 -15 -16 -6 0 -5 9 1 21 13 24
24 20 14 -5z m241 -8 c-1 -18 -8 -34 -15 -36 -9 -3 -11 2 -7 19 4 13 7 30 7
37 0 6 4 12 9 12 5 0 8 -14 6 -32z m65 10 c0 6 5 12 10 12 6 0 10 -9 10 -19 0
-14 -5 -18 -20 -14 -11 3 -20 13 -20 22 0 14 2 14 10 1 6 -10 10 -11 10 -2z
m-175 -37 c3 -5 1 -12 -5 -16 -5 -3 -10 1 -10 9 0 18 6 21 15 7z m-320 -41
c-8 -44 -24 -74 -25 -47 0 10 -4 15 -10 12 -5 -3 -10 -2 -10 4 0 5 8 15 18 21
16 9 16 11 -1 21 -22 13 -16 25 13 25 19 0 21 -4 15 -36z m72 -12 c-3 -8 -6
-5 -6 6 -1 11 2 17 5 13 3 -3 4 -12 1 -19z m193 -44 c0 -8 -4 -14 -10 -14 -5
0 -10 5 -10 11 0 8 -5 8 -15 -1 -12 -10 -15 -10 -15 2 0 8 3 17 6 20 10 10 44
-4 44 -18z m712 4 c2 -7 4 -31 3 -53 0 -28 -4 -40 -15 -40 -15 0 -26 64 -16
91 7 17 22 18 28 2z m-669 -18 c-4 -16 -8 -18 -19 -9 -20 16 -17 29 5 29 14 0
18 -5 14 -20z m104 -7 c2 -6 -3 -13 -12 -16 -10 -5 -15 0 -15 14 0 21 21 22
27 2z m-112 -33 c3 -5 3 -15 -1 -21 -6 -11 -23 6 -24 24 0 10 18 9 25 -3z
m195 -7 c0 -14 -2 -15 -9 -4 -6 9 -11 10 -15 3 -4 -6 -14 -8 -24 -5 -14 6 -13
8 8 14 38 11 40 10 40 -8z m874 -8 c-4 -8 -8 -15 -10 -15 -2 0 -4 7 -4 15 0 8
4 15 10 15 5 0 7 -7 4 -15z m-974 -21 c0 -8 -4 -12 -10 -9 -5 3 -10 10 -10 16
0 5 5 9 10 9 6 0 10 -7 10 -16z m-345 -26 c6 -4 2 -8 -7 -8 -10 0 -18 7 -18
17 0 9 3 12 8 7 4 -5 12 -12 17 -16z m49 3 c3 -5 -1 -11 -9 -15 -9 -3 -15 0
-15 9 0 16 16 20 24 6z m882 -36 c7 -5 13 -28 14 -50 3 -65 3 -67 -19 -53 -16
9 -17 16 -9 31 6 12 6 17 0 13 -16 -9 -23 22 -15 67 4 26 9 35 11 22 2 -11 10
-24 18 -30z m376 -27 c-8 -8 -9 -4 -5 13 4 13 8 18 11 10 2 -7 -1 -18 -6 -23z
m-969 -21 c-9 -16 -24 9 -17 28 7 18 8 18 14 -1 4 -10 5 -23 3 -27z m97 8 c0
-18 -33 -20 -48 -2 -9 10 -4 13 19 15 20 2 29 -2 29 -13z m-598 -57 c-7 -7
-12 -8 -12 -2 0 14 12 26 19 19 2 -3 -1 -11 -7 -17z m588 -10 c0 -7 -5 -6 -13
1 -8 6 -18 7 -22 3 -5 -4 -5 -2 -1 5 8 14 36 6 36 -9z m-590 -45 c0 -53 -12
-56 -41 -9 -37 59 -36 67 6 47 23 -11 34 -23 35 -38z m1129 -25 c11 -30 6 -38
-28 -38 -22 0 -30 5 -33 24 -5 25 -2 26 45 35 4 0 11 -9 16 -21z m-649 -3 c0
-8 -4 -15 -10 -15 -5 0 -10 7 -10 15 0 8 5 15 10 15 6 0 10 -7 10 -15z m580
-25 c0 -5 -2 -10 -4 -10 -3 0 -8 5 -11 10 -3 6 -1 10 4 10 6 0 11 -4 11 -10z
m-490 -19 c0 -4 -11 -6 -25 -3 -14 2 -25 6 -25 8 0 2 11 4 25 4 14 0 25 -4 25
-9z m913 -16 c4 -8 2 -17 -2 -20 -5 -2 -11 4 -14 15 -6 23 8 27 16 5z m-3
-219 c0 -3 -4 -8 -10 -11 -5 -3 -10 -1 -10 4 0 6 5 11 10 11 6 0 10 -2 10 -4z
m-20 -101 c0 -8 -4 -15 -10 -15 -5 0 -7 7 -4 15 4 8 8 15 10 15 2 0 4 -7 4
-15z"/>
<path d="M1501 2744 c0 -11 3 -14 6 -6 3 7 2 16 -1 19 -3 4 -6 -2 -5 -13z"/>
<path d="M1460 2450 c0 -5 5 -10 10 -10 6 0 10 5 10 10 0 6 -4 10 -10 10 -5 0
-10 -4 -10 -10z"/>
<path d="M1440 2430 c0 -8 5 -22 10 -30 9 -13 10 -13 10 0 0 8 -5 22 -10 30
-9 13 -10 13 -10 0z"/>
<path d="M1430 2270 c0 -5 5 -10 11 -10 5 0 7 5 4 10 -3 6 -8 10 -11 10 -2 0
-4 -4 -4 -10z"/>
<path d="M958 3420 c-5 -17 -15 -30 -21 -30 -6 0 -7 -3 -3 -7 3 -4 24 -7 46
-8 36 -1 38 0 27 19 -6 12 -10 26 -9 32 1 7 -5 14 -13 18 -12 4 -19 -3 -27
-24z"/>
<path d="M1320 3380 c0 -5 5 -10 10 -10 6 0 10 5 10 10 0 6 -4 10 -10 10 -5 0
-10 -4 -10 -10z"/>
<path d="M1293 3315 c1 -21 6 -35 14 -35 17 0 17 45 -1 59 -12 10 -14 6 -13
-24z"/>
<path d="M1115 2941 c-3 -5 -2 -12 3 -15 5 -3 9 1 9 9 0 17 -3 19 -12 6z"/>
<path d="M363 2834 c-29 -19 -53 -40 -53 -45 0 -14 11 -11 32 8 10 9 18 11 18
6 0 -6 -7 -13 -15 -17 -8 -3 -15 -15 -15 -27 0 -21 1 -22 20 -4 11 10 20 26
20 36 0 31 12 49 31 49 10 0 19 7 19 15 0 19 4 20 -57 -21z"/>
<path d="M1770 2839 c0 -5 5 -7 10 -4 6 3 10 8 10 11 0 2 -4 4 -10 4 -5 0 -10
-5 -10 -11z"/>
<path d="M1838 2825 c-9 -19 -14 -22 -29 -15 -24 13 -29 13 -29 -3 0 -14 48
-21 66 -9 6 4 14 17 18 30 10 30 -11 29 -26 -3z"/>
<path d="M271 2730 c-26 -46 -24 -63 6 -65 18 -1 23 6 28 36 4 21 3 45 -2 54
-7 12 -13 8 -32 -25z"/>
<path d="M315 2701 c-4 -21 -1 -38 10 -53 16 -22 16 -21 9 27 -8 62 -10 64
-19 26z"/>
<path d="M141 2404 c0 -11 3 -14 6 -6 3 7 2 16 -1 19 -3 4 -6 -2 -5 -13z"/>
<path d="M140 2306 c0 -8 4 -17 9 -20 5 -4 7 3 4 14 -6 23 -13 26 -13 6z"/>
<path d="M5 2210 c-3 -6 1 -7 9 -4 18 7 21 14 7 14 -6 0 -13 -4 -16 -10z"/>
<path d="M94 2195 c-7 -16 3 -35 17 -35 6 0 6 7 0 19 -6 10 -7 21 -4 25 3 3 3
6 -1 6 -3 0 -9 -7 -12 -15z"/>
<path d="M182 1010 c0 -14 2 -19 5 -12 2 6 2 18 0 25 -3 6 -5 1 -5 -13z"/>
<path d="M181 964 c0 -11 3 -14 6 -6 3 7 2 16 -1 19 -3 4 -6 -2 -5 -13z"/>
<path d="M1650 361 c0 -6 4 -13 10 -16 6 -3 7 1 4 9 -7 18 -14 21 -14 7z"/>
</g>
</svg>
